<svg xmlns="http://www.w3.org/2000/svg" version="1.1" width="16px" height="16px" style="shape-rendering:geometricPrecision; text-rendering:geometricPrecision; image-rendering:optimizeQuality; fill-rule:evenodd; clip-rule:evenodd" xmlns:xlink="http://www.w3.org/1999/xlink">
<g><path style="opacity:0.004" fill="#4bae4e" d="M 10.5,0.5 C 11.8333,1.16667 11.8333,1.16667 10.5,0.5 Z"/></g>
<g><path style="opacity:0.012" fill="#4bad4f" d="M 0.5,3.5 C 1.60093,2.40168 2.93426,2.23502 4.5,3C 3.20677,3.49001 1.87344,3.65668 0.5,3.5 Z"/></g>
<g><path style="opacity:0.013" fill="#4baf4f" d="M 5.5,3.5 C 6.25057,2.42654 7.25057,2.25988 8.5,3C 7.55198,3.48278 6.55198,3.64945 5.5,3.5 Z"/></g>
<g><path style="opacity:0.02" fill="#4baf4e" d="M 13.5,2.5 C 14.8333,3.16667 14.8333,3.16667 13.5,2.5 Z"/></g>
<g><path style="opacity:0.704" fill="#4baf4f" d="M 15.5,5.5 C 15.5,6.16667 15.5,6.83333 15.5,7.5C 14.8333,7.5 14.1667,7.5 13.5,7.5C 13.1667,6.16667 12.8333,6.16667 12.5,7.5C 9.16667,7.5 5.83333,7.5 2.5,7.5C 2.16667,6.16667 1.83333,6.16667 1.5,7.5C 0.833333,7.5 0.166667,7.5 -0.5,7.5C -0.5,6.83333 -0.5,6.16667 -0.5,5.5C 3.45998,5.06372 7.29332,4.06372 11,2.5C 12.3864,3.72856 13.8864,4.72856 15.5,5.5 Z"/></g>
<g><path style="opacity:0.559" fill="#419845" d="M -0.5,7.5 C 0.166667,7.5 0.833333,7.5 1.5,7.5C 1.83333,7.5 2.16667,7.5 2.5,7.5C 5.83333,7.5 9.16667,7.5 12.5,7.5C 12.8333,7.5 13.1667,7.5 13.5,7.5C 14.1667,7.5 14.8333,7.5 15.5,7.5C 15.5,8.16667 15.5,8.83333 15.5,9.5C 14.8333,9.5 14.5,9.83333 14.5,10.5C 10.6707,9.93104 7.33732,10.5977 4.5,12.5C 2.83333,12.5 1.16667,12.5 -0.5,12.5C -0.5,11.8333 -0.5,11.1667 -0.5,10.5C 0.833333,10.1667 0.833333,9.83333 -0.5,9.5C -0.5,8.83333 -0.5,8.16667 -0.5,7.5 Z"/></g>
<g><path style="opacity:0.004" fill="#419744" d="M 14.5,10.5 C 14.8333,10.5 15.1667,10.5 15.5,10.5C 15.5,10.8333 15.5,11.1667 15.5,11.5C 15.1667,11.1667 14.8333,10.8333 14.5,10.5 Z"/></g>
<g><path style="opacity:0.007" fill="#429845" d="M 5.5,12.5 C 6.60093,11.4017 7.93426,11.235 9.5,12C 8.20677,12.49 6.87344,12.6567 5.5,12.5 Z"/></g>
<g><path style="opacity:0.007" fill="#429845" d="M 14.5,11.5 C 13.3991,12.5983 12.0657,12.765 10.5,12C 11.7932,11.51 13.1266,11.3433 14.5,11.5 Z"/></g>
<g><path style="opacity:0.004" fill="#429845" d="M 4.5,12.5 C 4.83333,12.5 5.16667,12.5 5.5,12.5C 5.31468,13.1701 4.98135,13.1701 4.5,12.5 Z"/></g>
<g><path style="opacity:0.008" fill="#419745" d="M -0.5,14.5 C -0.5,14.1667 -0.5,13.8333 -0.5,13.5C 1.16667,13.5 2.83333,13.5 4.5,13.5C 3.08134,14.4511 1.41467,14.7845 -0.5,14.5 Z"/></g>
</svg>
